# xmcd
#
# Track frame offsets:
#	150
#	16422
#	34032
#	47627
#	63944
#	78210
#	93156
#	108771
#	124410
#	140056
#	156551
#	176059
#	185373
#	194753
#	212247
#	232241
#
# Disc length: 3329 seconds
#
# Revision: 0
# Processed by: cddbd v1.5.1PL2 Copyright (c) Steve Scherf et al.
# Submitted via: dBpowerAMP V4.0
#
DISCID=e60cff10
DTITLE=Various Artist - This Is Beach Music Vol. II
DYEAR=1900
DGENRE=
TTITLE0=Legendary Dukes - Seven Chances
TTITLE1=Craig Woolard - Love Don't Come No Stronger (Than Yours And Mine)
TTITLE2=Susan Trexler and Big John Ruth - Nip Sip
TTITLE3=Jackie Gore and the Tams - Concrete Jungle
TTITLE4=Danny and The Juniors - Zippity Doo Dah
TTITLE5=Showvinistics - Maybe Baby
TTITLE6=Softones - Dreamlove Mistreated
TTITLE7=Terri Gore - Stay A Little Longer
TTITLE8=Jay Proctor - What's A Matter Baby
TTITLE9=Bob Meyer - Fools Fall In Love In A Hurry
TTITLE10=Michael Wayne Deese - What's Wrong With You
TTITLE11=Hank Ballard - Don't Change Your Pretty Ways
TTITLE12=Roy Milton - I'm Forgettin' ABout You
TTITLE13=Susan Trexler - Young Love
TTITLE14=John Swank - Memphis Style
TTITLE15=Steve Smith and The Nakeds - That's ALright
EXTD=
EXTT0=
EXTT1=
EXTT2=
EXTT3=
EXTT4=
EXTT5=
EXTT6=
EXTT7=
EXTT8=
EXTT9=
EXTT10=
EXTT11=
EXTT12=
EXTT13=
EXTT14=
EXTT15=
PLAYORDER=
